<svg width="20" height="20" viewBox="0 0 20 20" fill="none" xmlns="http://www.w3.org/2000/svg">
<path d="M13 8.99166C13.8083 8.43333 14.375 7.51666 14.375 6.66666C14.375 4.78333 12.9167 3.33333 11.0417 3.33333H5.83333V15H11.7C13.4417 15 14.7917 13.5833 14.7917 11.8417C14.7917 10.575 14.075 9.49166 13 8.99166ZM8.33333 5.41666H10.8333C11.525 5.41666 12.0833 5.975 12.0833 6.66666C12.0833 7.35833 11.525 7.91666 10.8333 7.91666H8.33333V5.41666ZM11.25 12.9167H8.33333V10.4167H11.25C11.9417 10.4167 12.5 10.975 12.5 11.6667C12.5 12.3583 11.9417 12.9167 11.25 12.9167Z" fill="black" fill-opacity="0.54"/>
</svg>
