<svg width="18" height="18" viewBox="0 0 18 18" fill="none" xmlns="http://www.w3.org/2000/svg">
<path d="M8.99167 0.666672C4.39167 0.666672 0.666667 4.40001 0.666667 9.00001C0.666667 13.6 4.39167 17.3333 8.99167 17.3333C13.6 17.3333 17.3333 13.6 17.3333 9.00001C17.3333 4.40001 13.6 0.666672 8.99167 0.666672ZM6.08333 5.66667C6.775 5.66667 7.33333 6.22501 7.33333 6.91667C7.33333 7.60834 6.775 8.16667 6.08333 8.16667C5.39167 8.16667 4.83333 7.60834 4.83333 6.91667C4.83333 6.22501 5.39167 5.66667 6.08333 5.66667ZM9 14C7.1 14 5.48333 12.6167 4.83333 10.6667H13.1667C12.5167 12.6167 10.9 14 9 14ZM11.9167 8.16667C11.225 8.16667 10.6667 7.60834 10.6667 6.91667C10.6667 6.22501 11.225 5.66667 11.9167 5.66667C12.6083 5.66667 13.1667 6.22501 13.1667 6.91667C13.1667 7.60834 12.6083 8.16667 11.9167 8.16667Z" fill="black" fill-opacity="0.54"/>
</svg>
